#!OML:ASF E:\inclinewalkrobotboard\Project 1\Capture day 1\Session 1\subject1.ASF
:FULLY-SPECIFIED
:DEGREES
259
root 8.10039 16.5449 11.4298 -173.581 3.03896 -175.294
lowerback 5.00572 1.93069 -5.94088
upperback 4.69937 2.71144 3.15916
thorax 1.66224 1.31043 6.53661
lowerneck -9.62469 1.58705 -2.8184
upperneck 31.8839 -2.38685 6.32013
head 12.1544 -1.71395 2.3469
rclavicle -2.45375e-015 -1.60146e-014
rhumerus -42.1094 -11.7592 -71.7897
rradius 40.3132
rwrist 8.45615
rhand -11.9194 -33.7682
rfingers 7.12502
rthumb 14.1347 -63.2674
lclavicle -2.45375e-015 -1.60146e-014
lhumerus -33.4573 13.3469 73.0394
lradius 17.7678
lwrist -28.3918
lhand -34.1475 -22.5481
lfingers 7.12502
lthumb -7.32196 7.30525
rfemur -51.6497 11.5793 13.7703
rtibia 38.4611
rfoot 348.807 352.605
rtoes -28.5009
lfemur -17.5847 -8.25146 -21.4845
ltibia 28.192
lfoot -19.0806 -1.91068
ltoes -44.5628
260
root 8.09494 16.5443 11.431 -173.633 3.12469 -175.27
lowerback 4.99416 1.91316 -5.8114
upperback 4.72307 2.69826 3.25106
thorax 1.6961 1.30652 6.56177
lowerneck -10.1325 1.72848 -2.29336
upperneck 32.2948 -2.1355 5.73052
head 12.4084 -1.60129 2.06852
rclavicle -3.34828e-015 -8.72168e-015
rhumerus -42.083 -11.9559 -71.6424
rradius 40.1983
rwrist 8.4255
rhand -11.8167 -34.0258
rfingers 7.12502
rthumb 14.2337 -63.5181
lclavicle -3.34828e-015 -8.72168e-015
lhumerus -33.319 13.1762 73.2705
lradius 17.8366
lwrist -28.4074
lhand -34.4288 -22.575
lfingers 7.12502
lthumb -7.59346 7.2687
rfemur -51.534 11.6511 13.8286
rtibia 38.3481
rfoot 348.802 352.59
rtoes -28.0744
lfemur -17.5406 -8.26987 -21.4952
ltibia 28.2272
lfoot -19.071 -1.90415
ltoes -44.1618
261
root 8.09043 16.5445 11.4296 -173.708 3.20177 -175.246
lowerback 5.04387 1.87069 -5.67039
upperback 4.57227 2.62939 3.31079
thorax 1.5229 1.28016 6.54103
lowerneck -9.34463 1.81062 -2.41168
upperneck 32.0595 -2.08904 5.88284
head 12.1437 -1.61112 2.14488
rclavicle 5.34234e-016 8.32411e-015
rhumerus -42.4889 -12.0088 -71.5053
rradius 40.2199
rwrist 8.60922
rhand -11.7736 -34.0184
rfingers 7.12502
rthumb 14.2751 -63.5077
lclavicle 5.34234e-016 8.32411e-015
lhumerus -33.5139 12.8814 73.3768
lradius 17.9841
lwrist -28.2449
lhand -34.4277 -22.8984
lfingers 7.12502
lthumb -7.59241 6.94531
rfemur -51.3781 11.7684 13.8529
rtibia 38.2088
rfoot 348.815 352.517
rtoes -27.9639
lfemur -17.4386 -8.28026 -21.4881
ltibia 28.1926
lfoot -19.0642 -1.9487
ltoes -43.4559
262
root 8.08476 16.5424 11.4242 -173.685 3.38254 -175.313
lowerback 4.92077 1.87742 -5.63198
upperback 4.48298 2.63348 3.34282
thorax 1.49706 1.28149 6.55465
lowerneck -9.87268 2.02506 -1.84297
upperneck 32.6968 -1.82822 5.34686
head 12.4995 -1.49981 1.88003
rclavicle -2.20899e-014 -2.62396e-014
rhumerus -42.7751 -12.0638 -71.3925
rradius 40.2559
rwrist 8.58133
rhand -11.7502 -34.125
rfingers 7.12502
rthumb 14.2977 -63.6128
lclavicle -2.20899e-014 -2.62396e-014
lhumerus -33.5612 12.4856 73.5796
lradius 18.1711
lwrist -28.0108
lhand -34.2861 -23.02
lfingers 7.12502
lthumb -7.4557 6.82858
rfemur -51.3912 11.8736 13.7815
rtibia 38.1724
rfoot 348.807 352.557
rtoes -28.2742
lfemur -17.3985 -8.23371 -21.5985
ltibia 28.1397
lfoot -19.1079 -1.85792
ltoes -43.4994
263
root 8.07762 16.5394 11.4233 -173.611 3.54699 -175.343
lowerback 4.80421 1.88885 -5.54407
upperback 4.46114 2.65394 3.3931
thorax 1.53675 1.29133 6.56031
lowerneck -9.48158 1.96344 -2.27745
upperneck 32.376 -1.90057 5.69126
head 12.2896 -1.54711 2.0746
rclavicle 9.79014e-015 2.21645e-014
rhumerus -42.8446 -12.1055 -71.3195
rradius 40.2273
rwrist 8.23188
rhand -11.6707 -34.5763
rfingers 7.12502
rthumb 14.3744 -64.0586
lclavicle 9.79014e-015 2.21645e-014
lhumerus -33.4343 12.2547 73.7699
lradius 18.2261
lwrist -28.0145
lhand -34.4504 -23.3151
lfingers 7.12502
lthumb -7.61435 6.52786
rfemur -51.511 11.9252 13.7459
rtibia 38.2212
rfoot 348.796 352.647
rtoes -28.7896
lfemur -17.4797 -8.17241 -21.6679
ltibia 28.1962
lfoot -19.1721 -1.76519
ltoes -43.7121
264
root 8.07191 16.5384 11.4264 -173.601 3.64733 -175.219
lowerback 4.84756 1.87959 -5.27917
upperback 4.41808 2.64882 3.47471
thorax 1.47372 1.29826 6.49212
lowerneck -9.415 1.99416 -2.39618
upperneck 32.3416 -1.86311 5.79439
head 12.2599 -1.53526 2.13892
rclavicle -3.3048e-014 7.7526e-015
rhumerus -42.9537 -12.1908 -71.2285
rradius 40.2039
rwrist 8.09996
rhand -11.4042 -34.9354
rfingers 7.12502
rthumb 14.6311 -64.3992
lclavicle -3.3048e-014 7.7526e-015
lhumerus -33.384 12.0716 73.9133
lradius 18.3359
lwrist -27.8844
lhand -34.4853 -23.4117
lfingers 7.12502
lthumb -7.64797 6.43004
rfemur -51.5417 12.0214 13.8704
rtibia 38.2601
rfoot 348.784 352.682
rtoes -28.8831
lfemur -17.5263 -8.06705 -21.5279
ltibia 28.2564
lfoot -19.1741 -1.78531
ltoes -43.5666
265
root 8.06643 16.5379 11.4279 -173.633 3.76891 -175.148
lowerback 4.91452 1.86857 -5.05097
upperback 4.371 2.63811 3.51646
thorax 1.39465 1.30168 6.40197
lowerneck -9.35012 2.0337 -2.4198
upperneck 32.3905 -1.81679 5.7698
head 12.2632 -1.52872 2.13893
rclavicle -1.98785e-016 -4.07509e-015
rhumerus -43.1031 -12.3146 -71.1868
rradius 40.2075
rwrist 8.14196
rhand -11.2447 -35.1094
rfingers 7.12502
rthumb 14.7847 -64.5621
lclavicle -1.98785e-016 -4.07509e-015
lhumerus -33.3989 11.8705 74.0042
lradius 18.5314
lwrist -27.6367
lhand -34.3571 -23.2724
lfingers 7.12502
lthumb -7.52426 6.57376
rfemur -51.5252 12.1192 13.9505
rtibia 38.2986
rfoot 348.781 352.692
rtoes -28.699
lfemur -17.4445 -7.9037 -21.4523
ltibia 28.1451
lfoot -19.0992 -1.70703
ltoes -43.8425
266
root 8.0612 16.5361 11.4289 -173.663 3.84007 -175.226
lowerback 4.92753 1.82406 -5.01656
upperback 4.3466 2.57746 3.53477
thorax 1.37127 1.27253 6.40347
lowerneck -9.10577 -1.88119 -2.03253
upperneck 32.6069 -0.221909 4.38295
head 12.2527 1.33366 2.24249
rclavicle -3.32964e-015 -1.31198e-014
rhumerus -43.2183 -12.3033 -71.2336
rradius 40.2298
rwrist 7.88065
rhand -11.3189 -35.2648
rfingers 7.12502
rthumb 14.7132 -64.7227
lclavicle -3.32964e-015 -1.31198e-014
lhumerus -33.3721 11.8604 73.9866
lradius 18.5791
lwrist -27.7167
lhand -34.4778 -23.3515
lfingers 7.12502
lthumb -7.6408 6.4905
rfemur -51.5306 12.1069 13.8668
rtibia 38.3451
rfoot 348.816 352.691
rtoes -28.3569
lfemur -17.3903 -7.80616 -21.5671
ltibia 28.0775
lfoot -19.0223 -1.60754
ltoes -44.1677
267
root 8.05815 16.5349 11.4292 -173.671 3.87585 -175.351
lowerback 4.85654 1.76214 -5.11137
upperback 4.3463 2.4933 3.57608
thorax 1.41849 1.22552 6.5085
lowerneck -9.07357 -1.7444 -2.14706
upperneck 32.5063 -0.051637 4.4999
head 12.1974 1.40273 2.32331
rclavicle -1.25731e-014 -7.55382e-015
rhumerus -43.3327 -12.2239 -71.2667
rradius 40.2957
rwrist 7.70338
rhand -11.262 -35.5093
rfingers 7.12502
rthumb 14.7681 -64.9631
lclavicle -1.25731e-014 -7.55382e-015
lhumerus -33.2516 11.9855 73.9713
lradius 18.5344
lwrist -27.8659
lhand -34.7425 -23.7713
lfingers 7.12502
lthumb -7.89629 6.06124
rfemur -51.5603 12.0684 13.7266
rtibia 38.3815
rfoot 348.916 352.709
rtoes -28.0292
lfemur -17.4132 -7.76081 -21.7302
ltibia 28.125
lfoot -18.9762 -1.69969
ltoes -43.8857
268
root 8.05397 16.5355 11.4272 -173.671 3.93894 -175.495
lowerback 4.74578 1.74738 -5.18555
upperback 4.36513 2.47488 3.58837
thorax 1.49997 1.21067 6.5696
lowerneck -9.29778 -1.61835 -1.88883
upperneck 32.5963 0.135314 4.30357
head 12.2735 1.49246 2.23233
rclavicle -2.28602e-015 6.95746e-015
rhumerus -43.4795 -12.3442 -71.2276
rradius 40.3671
rwrist 7.8141
rhand -11.1365 -35.7959
rfingers 7.12502
rthumb 14.889 -65.2408
lclavicle -2.28602e-015 6.95746e-015
lhumerus -32.9819 12.0106 74.0423
lradius 18.4663
lwrist -27.9043
lhand -34.6961 -23.9563
lfingers 7.12502
lthumb -7.8515 5.87794
rfemur -51.5888 12.0055 13.5986
rtibia 38.42
rfoot 349.021 352.8
rtoes -27.9897
lfemur -17.3979 -7.72481 -21.9308
ltibia 28.1208
lfoot -18.9677 -1.76306
ltoes -43.7339
